Coordinates
version=1
nRows=16
nColumns=40
inDegrees=yes

Units are S.I. units (second, meters, Newtons, ...)
If the header above contains a line with 'inDegrees', this indicates whether rotational values are in degrees (yes) or radians (no).

endheader
time	pelvis_tilt	pelvis_list	pelvis_rotation	pelvis_tx	pelvis_ty	pelvis_tz	hip_flexion_r	hip_adduction_r	hip_rotation_r	knee_angle_r	knee_angle_r_beta	ankle_angle_r	subtalar_angle_r	mtp_angle_r	hip_flexion_l	hip_adduction_l	hip_rotation_l	knee_angle_l	knee_angle_l_beta	ankle_angle_l	subtalar_angle_l	mtp_angle_l	lumbar_extension	lumbar_bending	lumbar_rotation	arm_flex_r	arm_add_r	arm_rot_r	elbow_flex_r	pro_sup_r	wrist_flex_r	wrist_dev_r	arm_flex_l	arm_add_l	arm_rot_l	elbow_flex_l	pro_sup_l	wrist_flex_l	wrist_dev_l
      0.86000000	     -3.61806999	      6.36122567	    -87.47752756	      0.21442351	      0.92523386	     -0.24119027	     21.84514739	      6.03123146	     -8.46750909	     19.12899387	      0.33386393	      2.77625603	      0.00000000	      0.00000000	     20.55262536	     -6.14063432	      1.46267510	     65.22656962	      1.13841840	     -6.80374348	      0.00000000	     -0.00000000	      1.99279632	      4.36515256	     -6.14583959	      0.00000000	     -0.00000000	      0.00000000	      0.00000000	      0.00000000	     -0.00000000	      0.00000000	      0.00000000	     -0.00000000	     -0.00000000	      0.00000000	      0.00000000	      0.00000000	     -0.00000000
      0.87000000	     -3.56335233	      6.45800642	    -87.73746990	      0.21386029	      0.92728271	     -0.22921241	     20.62519251	      6.18166492	     -8.20028991	     18.24072694	      0.31836074	      2.91611869	      0.00000000	      0.00000000	     22.28828694	     -6.12686557	      1.35682580	     64.79507148	      1.13088734	     -5.77138455	      0.00000000	      0.00000000	      1.93050698	      4.25647094	     -5.70840708	      0.00000000	      0.00000000	      0.00000000	      0.00000000	      0.00000000	      0.00000000	      0.00000000	      0.00000000	      0.00000000	      0.00000000	      0.00000000	      0.00000000	      0.00000000	      0.00000000
      0.88000000	     -3.43498447	      6.55740825	    -87.99244772	      0.21340388	      0.92922891	     -0.21729267	     19.41046138	      6.23855788	     -7.89050959	     17.35788336	      0.30295222	      3.09383906	      0.00000000	      0.00000000	     23.88434497	     -5.99669383	      1.22333832	     63.91158818	      1.11546764	     -4.85524834	      0.00000000	      0.00000000	      1.87427254	      4.06588168	     -5.29854484	      0.00000000	      0.00000000	      0.00000000	      0.00000000	      0.00000000	      0.00000000	      0.00000000	      0.00000000	      0.00000000	      0.00000000	      0.00000000	      0.00000000	      0.00000000	      0.00000000
      0.89000000	     -3.26884213	      6.70611143	    -88.24489481	      0.21300407	      0.93093670	     -0.20547945	     18.29388643	      6.22899877	     -7.59205760	     16.54484294	      0.28876198	      3.31763539	      0.00000000	      0.00000000	     25.41560871	     -5.82070595	      1.03408585	     62.63984131	      1.09327147	     -4.06912228	      0.00000000	      0.00000000	      1.87337918	      3.82947624	     -4.91221126	      0.00000000	      0.00000000	      0.00000000	      0.00000000	      0.00000000	      0.00000000	      0.00000000	      0.00000000	      0.00000000	      0.00000000	      0.00000000	      0.00000000	      0.00000000	      0.00000000
      0.90000000	     -3.16357658	      6.71127350	    -88.50880236	      0.21259066	      0.93267112	     -0.19360218	     16.94520444	      6.29840477	     -7.27903115	     15.57204188	      0.27178340	      3.39176707	     -0.00000000	      0.00000000	     26.64455013	     -5.75463568	      0.76052319	     60.98213707	      1.06433908	     -3.42372272	      0.00000000	     -0.00000000	      1.70879001	      3.66502502	     -4.47518255	      0.00000000	      0.00000000	      0.00000000	      0.00000000	      0.00000000	     -0.00000000	      0.00000000	     -0.00000000	      0.00000000	     -0.00000000	      0.00000000	      0.00000000	     -0.00000000	      0.00000000
      0.91000000	     -3.00424367	      6.88714256	    -88.75534328	      0.21227718	      0.93392758	     -0.18186332	     15.88818720	      6.27301163	     -6.94420213	     14.78750207	      0.25809060	      3.62056735	      0.00000000	      0.00000000	     27.94488085	     -5.58607917	      0.49260172	     58.99852879	      1.02971858	     -2.88378604	      0.00000000	      0.00000000	      1.74043757	      3.43005646	     -4.11523565	      0.00000000	      0.00000000	      0.00000000	      0.00000000	      0.00000000	      0.00000000	      0.00000000	      0.00000000	      0.00000000	      0.00000000	      0.00000000	      0.00000000	      0.00000000	      0.00000000
      0.92000000	     -2.90595120	      6.87029030	    -88.96661444	      0.21203554	      0.93522455	     -0.16998017	     14.54109272	      6.30846725	     -6.68495875	     13.85278479	      0.24177671	      3.73787103	      0.00000000	      0.00000000	     28.88734656	     -5.49979665	      0.18742846	     56.67320217	      0.98913398	     -2.50471139	      0.00000000	      0.00000000	      1.55617965	      3.27566577	     -3.73663707	      0.00000000	      0.00000000	      0.00000000	      0.00000000	      0.00000000	      0.00000000	      0.00000000	      0.00000000	      0.00000000	      0.00000000	      0.00000000	      0.00000000	      0.00000000	      0.00000000
      0.93000000	     -2.81528187	      6.93839900	    -89.16441328	      0.21185780	      0.93613191	     -0.15813159	     13.34603851	      6.32855034	     -6.41906430	     13.02906518	      0.22740009	      3.92709532	      0.00000000	      0.00000000	     29.81033221	     -5.39451590	     -0.10567648	     54.07317576	      0.94375495	     -2.22205559	      0.00000000	      0.00000000	      1.48257073	      3.12187691	     -3.41051998	      0.00000000	      0.00000000	      0.00000000	      0.00000000	      0.00000000	      0.00000000	      0.00000000	      0.00000000	      0.00000000	      0.00000000	      0.00000000	      0.00000000	      0.00000000	      0.00000000
      0.94000000	     -2.73319310	      7.12852295	    -89.32196265	      0.21177615	      0.93657035	     -0.14633949	     12.32939617	      6.34416168	     -6.12592512	     12.27760313	      0.21428460	      4.21184037	      0.00000000	      0.00000000	     30.77003071	     -5.26087809	     -0.36747160	     51.23057597	      0.89414223	     -2.03997982	      0.00000000	      0.00000000	      1.54259126	      2.97227848	     -3.13563368	      0.00000000	      0.00000000	      0.00000000	      0.00000000	      0.00000000	      0.00000000	      0.00000000	      0.00000000	      0.00000000	      0.00000000	      0.00000000	      0.00000000	      0.00000000	      0.00000000
      0.95000000	     -2.71511279	      7.06739990	    -89.44812671	      0.21174294	      0.93709096	     -0.13430095	     10.97813449	      6.41333187	     -5.96126244	     11.43196382	      0.19952541	      4.38349218	      0.00000000	      0.00000000	     31.31828436	     -5.18929389	     -0.62463730	     48.12151994	      0.83987896	     -1.94645623	      0.00000000	      0.00000000	      1.34099295	      2.89220275	     -2.85818579	      0.00000000	      0.00000000	      0.00000000	      0.00000000	      0.00000000	      0.00000000	      0.00000000	      0.00000000	      0.00000000	      0.00000000	      0.00000000	      0.00000000	      0.00000000	      0.00000000
      0.96000000	     -2.73678864	      7.29733646	    -89.54224158	      0.21179077	      0.93685621	     -0.12239860	     10.03959752	      6.50692849	     -5.76035277	     10.76209972	      0.18783407	      4.74001377	      0.00000000	      0.00000000	     32.13422512	     -5.11005575	     -0.80570047	     44.86825368	      0.78309876	     -1.88140176	      0.00000000	      0.00000000	      1.47515196	      2.85262779	     -2.63097532	      0.00000000	      0.00000000	      0.00000000	      0.00000000	      0.00000000	      0.00000000	      0.00000000	      0.00000000	      0.00000000	      0.00000000	      0.00000000	      0.00000000	      0.00000000	      0.00000000
      0.97000000	     -2.76927398	      7.18930271	    -89.61299595	      0.21194492	      0.93683715	     -0.11014951	      8.64131871	      6.60670141	     -5.62050922	      9.95094557	      0.17367676	      4.93332003	      0.00000000	      0.00000000	     32.42170724	     -5.01548882	     -0.97527252	     41.34260558	      0.72156459	     -1.91857984	      0.00000000	      0.00000000	      1.23884562	      2.82969598	     -2.43274322	      0.00000000	      0.00000000	      0.00000000	      0.00000000	      0.00000000	      0.00000000	      0.00000000	      0.00000000	      0.00000000	      0.00000000	      0.00000000	      0.00000000	      0.00000000	      0.00000000
      0.98000000	     -2.87533862	      7.42601401	    -89.66809430	      0.21206837	      0.93598256	     -0.09803099	      7.72284111	      6.77717972	     -5.42372077	      9.32725980	      0.16279139	      5.33395384	      0.00000000	     -0.00000000	     33.07061797	     -4.96718585	     -1.03453659	     37.76942176	      0.65920077	     -1.91671750	     -0.00000000	      0.00000000	      1.41338668	      2.88336508	     -2.23674576	     -0.00000000	     -0.00000000	      0.00000000	      0.00000000	      0.00000000	     -0.00000000	     -0.00000000	      0.00000000	     -0.00000000	      0.00000000	      0.00000000	      0.00000000	     -0.00000000	      0.00000000
      0.99000000	     -2.98521235	      7.48792222	    -89.70217129	      0.21234621	      0.93508750	     -0.08570015	      6.56193334	      6.93928235	     -5.28223109	      8.63322117	      0.15067813	      5.66243370	      0.00000000	      0.00000000	     33.39322331	     -4.87416350	     -1.01538535	     33.97505722	      0.59297661	     -1.99636823	      0.00000000	      0.00000000	      1.38367985	      2.95792704	     -2.09198461	      0.00000000	      0.00000000	      0.00000000	      0.00000000	      0.00000000	      0.00000000	      0.00000000	      0.00000000	      0.00000000	      0.00000000	      0.00000000	      0.00000000	      0.00000000	      0.00000000
      1.00000000	     -3.14909131	      7.36903549	    -89.73245251	      0.21263292	      0.93414821	     -0.07306448	      5.17019528	      7.15847083	     -5.20403093	      7.90691645	      0.13800173	      5.92646598	      0.00000000	      0.00000000	     33.42220821	     -4.83485295	     -0.94713617	     30.08008283	      0.52499648	     -1.99037505	      0.00000000	      0.00000000	      1.18100930	      3.07695782	     -1.89147985	      0.00000000	      0.00000000	      0.00000000	      0.00000000	      0.00000000	      0.00000000	      0.00000000	      0.00000000	      0.00000000	      0.00000000	      0.00000000	      0.00000000	      0.00000000	      0.00000000
      1.01000000	     -3.39718329	      7.57335776	    -89.75571884	      0.21291992	      0.93237967	     -0.06048548	      4.19511140	      7.46256241	     -4.99264935	      7.31815048	      0.12772582	      6.36422159	     -0.00000000	     -0.00000000	     33.79339557	     -4.84511559	     -0.68827427	     26.21486392	      0.45753569	     -1.92800294	     -0.00000000	      0.00000000	      1.35878751	      3.29368007	     -1.73180323	     -0.00000000	     -0.00000000	     -0.00000000	      0.00000000	      0.00000000	     -0.00000000	      0.00000000	      0.00000000	     -0.00000000	     -0.00000000	      0.00000000	      0.00000000	     -0.00000000	     -0.00000000
